<?xml version="1.0" encoding="utf-8"?>
<!DOCTYPE svg PUBLIC "-//W3//DTD SVG 1.1//EN" "http://www.w3.org/Graphics/SVG/1.1/DTD/svg11.dtd">
<svg  xmlns="http://www.w3.org/2000/svg" xmlns:xlink="http://www.w3.org/1999/xlink"
      width="400px" height="300px" version="1.1">
  <title> Animated House. </title>
  
  <path id="curve" transform="translate(85, 200)" d="M 0 0 Q 60 -60 40 80 Q 60 -60 0 0"
        style="stroke: none; fill: none" />   

  <!-- (1.) Basic lines for the house -->
  <line x1="210" y1="120" x2="210" y2="260" style="stroke: #000; stroke-width: 1.5" />
  <line x1="340" y1="120" x2="340" y2="260" style="stroke: #000; stroke-width: 1.5" />
  <line x1="210" y1="120" x2="340" y2="120" style="stroke: #000; stroke-width: 1.5" />
  <line x1="210" y1="260" x2="340" y2="260" style="stroke: #000; stroke-width: 1.5" />

  <g>
    <!-- (2.) Roof -->
    <polygon points="210, 120, 340, 120, 275, 30" />
    
    <!-- (3.) Chimney -->
    <rect x="220" y="40" width="20" height="80" rx="" ry="" />
    <rect x="220" y="40" width="20" height="80" rx="" ry="" />
    <animateTransform attributeName="transform" type="scale" attributeType="XML"
                      values="0, 0; 1, 1; 1, 0; 1, 1" keytimes="0; 0.8; 0.9; 1" begin="0s" dur="3s" fill="freeze" />
  </g>
  
  <!-- (4.) Door + Window -->
  <rect x="270" y="140" width="50" height="50" rx="" ry="" />
  <g>
    <rect x="220" y="200" width="35" height="60" rx="" ry="" />
    <circle cx="230" cy="240" r="3" style="fill: #fff" />
    <animateTransform	attributeName="transform"	type="rotate" attributeType="XML" from="0, 220, 200" 
                      to="360, 220, 200" begin="0s" dur="4s" fill="freeze" id="doorTF" />
  </g>
      
  <!-- (5.) Tree -->
  <g>
    <rect x="85" y="200" width="18" height="60" rx="" ry="" />
    <circle cx="94" cy="200" r="22" />
      <animateMotion begin="doorTF.end" dur="4s" fill="freeze">
        <mpath xlink:href="#curve"/>
      </animateMotion>
  </g>
      
  <!-- Some extra features. -->
  <line x1="0" y1="260" x2="400" y2="260" style="stroke: #000; stroke-width: 1.5" />

</svg>
