<?xml version="1.0" encoding="utf-8"?>
<!DOCTYPE svg PUBLIC "-//W3//DTD SVG 1.1//EN" "http://www.w3.org/Graphics/SVG/1.1/DTD/svg11.dtd">
<svg  xmlns="http://www.w3.org/2000/svg" xmlns:xlink="http://www.w3.org/1999/xlink"
      width="200px" height="200px" version="1.1">
      
  <title> Blockage! </title>      
  
  <rect x="0" y="0" width="40px" height="40px" rx="" ry="" style="fill: #b11e17; stroke: white" />
  <rect x="40" y="0" width="20px" height="40px" rx="" ry="" style="fill: #ec2c22; stroke: white" />
  <rect x="60" y="0" width="50px" height="40px" rx="" ry="" style="fill: #b11e17; stroke: white" />
  <rect x="110" y="0" width="90px" height="40px" rx="" ry="" style="fill: #ec2c22; stroke: white" />
    
  <rect x="0" y="40" width="140px" height="40px" rx="" ry="" style="fill: #b11e17; stroke: white" />
  <rect x="140" y="40" width="60px" height="40px" rx="" ry="" style="fill: #ec2c22; stroke: white" />
    
  <rect x="0" y="80" width="30px" height="40px" rx="" ry="" style="fill: #b11e17; stroke: white" />
  <rect x="30" y="80" width="30px" height="40px" rx="" ry="" style="fill: #ec2c22; stroke: white" />
  <rect x="60" y="80" width="140px" height="40px" rx="" ry="" style="fill: #b11e17; stroke: white" />
    
  <rect x="0" y="120" width="140px" height="40px" rx="" ry="" style="fill: #b11e17; stroke: white" />
  <rect x="140" y="120" width="60px" height="40px" rx="" ry="" style="fill: #ec2c22; stroke: white" />
    
  <rect x="0" y="160" width="40px" height="40px" rx="" ry="" style="fill: #b11e17; stroke: white" />
  <rect x="40" y="160" width="70px" height="40px" rx="" ry="" style="fill: #ec2c22; stroke: white" />
  <rect x="110" y="160" width="50px" height="40px" rx="" ry="" style="fill: #b11e17; stroke: white" />
  <rect x="160" y="160" width="40px" height="40px" rx="" ry="" style="fill: #ec2c22; stroke: white" />

</svg>
